# xmcd
#
# Track frame offsets: 
#        300
#        22886
#        43069
#        58221
#        86028
#        108663
#        139458
#        156208
#        184352
#        201172
#
# Disc length: 2973 seconds
#
# Revision: 2
# Processed by: cddbd v1.5.2PL0 Copyright (c) Steve Scherf et al.
# Submitted via: ExactAudioCopy v1.0b1
#
DISCID=960b990a
DTITLE=Jimmy Dawkins - Me, My Gitar And The Blues
DYEAR=1997
DGENRE=Blues
TTITLE0=Back to School
TTITLE1=You Don't Want Me
TTITLE2=Down, Down Baby
TTITLE3=I'm Running
TTITLE4=Tuff Girl
TTITLE5=Me, My Guitar and the Blues
TTITLE6=Jimmy's Bag
TTITLE7=Tru Love
TTITLE8=Back Street Blues
TTITLE9=Cold as Hell
EXTD=
EXTT0=
EXTT1=
EXTT2=
EXTT3=
EXTT4=
EXTT5=
EXTT6=
EXTT7=
EXTT8=
EXTT9=
PLAYORDER=
